<?xml version="1.0" standalone="no"?><!-- Created with QR-Code Generator Pro (https://www.microsoft.com/store/apps/9NQZGS8WZLH2) --><!DOCTYPE svg PUBLIC "-//W3C//DTD SVG 1.1//EN" "http://www.w3.org/Graphics/SVG/1.1/DTD/svg11.dtd"><svg xmlns="http://www.w3.org/2000/svg" version="1.2" baseProfile="tiny" shape-rendering="crispEdges" viewBox="0 0 200 200" viewport-fill="rgb(255,255,255)" viewport-fill-opacity="1" fill="rgb(0,0,0)" fill-opacity="1" style="background-color:rgb(255,255,255);background-color:rgba(255, 255, 255, 1);"><rect x="13" y="13" width="6" height="42"/><rect x="13" y="61" width="30" height="6"/><rect x="13" y="73" width="6" height="6"/><rect x="13" y="97" width="18" height="12"/><rect x="13" y="115" width="6" height="24"/><rect x="13" y="145" width="6" height="42"/><rect x="19" y="13" width="36" height="6"/><rect x="19" y="49" width="36" height="6"/><rect x="19" y="67" width="12" height="6"/><rect x="19" y="91" width="6" height="18"/><rect x="19" y="115" width="6" height="6"/><rect x="19" y="145" width="36" height="6"/><rect x="19" y="181" width="36" height="6"/><rect x="25" y="25" width="18" height="18"/><rect x="25" y="73" width="12" height="6"/><rect x="25" y="109" width="30" height="6"/><rect x="25" y="133" width="18" height="6"/><rect x="25" y="157" width="18" height="18"/><rect x="31" y="79" width="6" height="18"/><rect x="31" y="103" width="6" height="12"/><rect x="37" y="67" width="12" height="6"/><rect x="37" y="97" width="6" height="6"/><rect x="37" y="127" width="6" height="12"/><rect x="43" y="73" width="6" height="24"/><rect x="43" y="127" width="6" height="6"/><rect x="49" y="19" width="6" height="36"/><rect x="49" y="61" width="30" height="6"/><rect x="49" y="73" width="6" height="6"/><rect x="49" y="85" width="6" height="6"/><rect x="49" y="97" width="18" height="6"/><rect x="49" y="121" width="6" height="6"/><rect x="49" y="133" width="6" height="6"/><rect x="49" y="151" width="6" height="36"/><rect x="55" y="67" width="6" height="6"/><rect x="55" y="127" width="6" height="6"/><rect x="61" y="19" width="12" height="6"/><rect x="61" y="31" width="12" height="6"/><rect x="61" y="43" width="6" height="12"/><rect x="61" y="79" width="24" height="6"/><rect x="61" y="103" width="12" height="6"/><rect x="61" y="115" width="12" height="6"/><rect x="61" y="133" width="6" height="18"/><rect x="61" y="157" width="6" height="30"/><rect x="67" y="13" width="6" height="24"/><rect x="67" y="67" width="6" height="30"/><rect x="67" y="121" width="6" height="12"/><rect x="67" y="139" width="6" height="18"/><rect x="67" y="169" width="6" height="18"/><rect x="73" y="25" width="12" height="6"/><rect x="73" y="37" width="6" height="18"/><rect x="73" y="91" width="6" height="12"/><rect x="73" y="109" width="6" height="6"/><rect x="73" y="133" width="6" height="12"/><rect x="73" y="151" width="6" height="12"/><rect x="73" y="181" width="18" height="6"/><rect x="79" y="19" width="6" height="18"/><rect x="79" y="73" width="6" height="18"/><rect x="79" y="121" width="6" height="18"/><rect x="79" y="169" width="6" height="18"/><rect x="85" y="19" width="30" height="6"/><rect x="85" y="37" width="6" height="6"/><rect x="85" y="49" width="6" height="18"/><rect x="85" y="73" width="6" height="6"/><rect x="85" y="91" width="12" height="6"/><rect x="85" y="103" width="6" height="12"/><rect x="85" y="121" width="6" height="6"/><rect x="85" y="139" width="6" height="6"/><rect x="85" y="151" width="6" height="12"/><rect x="85" y="169" width="36" height="6"/><rect x="91" y="13" width="24" height="12"/><rect x="91" y="31" width="30" height="6"/><rect x="91" y="43" width="6" height="6"/><rect x="91" y="61" width="6" height="12"/><rect x="91" y="85" width="6" height="12"/><rect x="91" y="109" width="30" height="6"/><rect x="91" y="133" width="18" height="6"/><rect x="91" y="157" width="6" height="18"/><rect x="97" y="25" width="6" height="18"/><rect x="97" y="49" width="6" height="18"/><rect x="97" y="73" width="12" height="6"/><rect x="97" y="85" width="30" height="6"/><rect x="97" y="103" width="6" height="12"/><rect x="97" y="121" width="18" height="6"/><rect x="97" y="145" width="6" height="12"/><rect x="97" y="175" width="18" height="6"/><rect x="103" y="43" width="6" height="6"/><rect x="103" y="61" width="18" height="6"/><rect x="103" y="79" width="6" height="12"/><rect x="103" y="97" width="6" height="6"/><rect x="103" y="145" width="18" height="6"/><rect x="103" y="157" width="24" height="6"/><rect x="109" y="49" width="6" height="6"/><rect x="109" y="139" width="6" height="42"/><rect x="115" y="13" width="24" height="6"/><rect x="115" y="73" width="12" height="6"/><rect x="115" y="91" width="6" height="12"/><rect x="115" y="115" width="18" height="6"/><rect x="115" y="133" width="6" height="18"/><rect x="115" y="163" width="6" height="12"/><rect x="115" y="181" width="6" height="6"/><rect x="121" y="19" width="6" height="12"/><rect x="121" y="49" width="6" height="6"/><rect x="121" y="67" width="6" height="30"/><rect x="121" y="103" width="18" height="6"/><rect x="121" y="121" width="6" height="6"/><rect x="121" y="139" width="6" height="6"/><rect x="121" y="163" width="18" height="6"/><rect x="127" y="37" width="12" height="6"/><rect x="127" y="61" width="6" height="12"/><rect x="127" y="79" width="18" height="6"/><rect x="127" y="91" width="36" height="6"/><rect x="127" y="109" width="6" height="12"/><rect x="127" y="127" width="24" height="12"/><rect x="127" y="145" width="12" height="12"/><rect x="127" y="169" width="12" height="6"/><rect x="127" y="181" width="6" height="6"/><rect x="133" y="25" width="6" height="30"/><rect x="133" y="67" width="6" height="18"/><rect x="133" y="139" width="6" height="42"/><rect x="139" y="61" width="6" height="6"/><rect x="139" y="73" width="6" height="12"/><rect x="139" y="121" width="6" height="18"/><rect x="139" y="157" width="24" height="6"/><rect x="139" y="175" width="6" height="6"/><rect x="145" y="13" width="6" height="42"/><rect x="145" y="67" width="18" height="6"/><rect x="145" y="115" width="18" height="6"/><rect x="145" y="145" width="6" height="6"/><rect x="145" y="169" width="36" height="6"/><rect x="145" y="181" width="30" height="6"/><rect x="151" y="13" width="36" height="6"/><rect x="151" y="49" width="36" height="6"/><rect x="151" y="61" width="6" height="12"/><rect x="151" y="79" width="18" height="6"/><rect x="151" y="103" width="6" height="6"/><rect x="151" y="121" width="12" height="6"/><rect x="151" y="133" width="12" height="6"/><rect x="151" y="175" width="6" height="12"/><rect x="157" y="25" width="18" height="18"/><rect x="157" y="73" width="6" height="12"/><rect x="157" y="139" width="6" height="24"/><rect x="163" y="61" width="6" height="6"/><rect x="163" y="85" width="12" height="6"/><rect x="163" y="97" width="12" height="6"/><rect x="163" y="109" width="12" height="6"/><rect x="163" y="139" width="12" height="12"/><rect x="163" y="163" width="6" height="24"/><rect x="169" y="115" width="6" height="12"/><rect x="169" y="133" width="6" height="18"/><rect x="169" y="157" width="12" height="18"/><rect x="175" y="61" width="6" height="6"/><rect x="175" y="79" width="6" height="6"/><rect x="175" y="103" width="6" height="6"/><rect x="175" y="127" width="6" height="18"/><rect x="175" y="175" width="6" height="6"/><rect x="181" y="19" width="6" height="36"/><rect x="181" y="67" width="6" height="6"/><rect x="181" y="91" width="6" height="6"/><rect x="181" y="115" width="6" height="6"/><rect x="181" y="133" width="6" height="12"/><rect x="181" y="151" width="6" height="18"/></svg>